# xmcd
# 
# Track frame offsets:
#     150
#     19800
#     39525
#     59626
#     87076
# 
# Disc length: 1437
# 
# Revision: 0
# Processed by: cddbd v1.5.2PL0 Copyright (c) Steve Scherf et al.
# Submitted via: fre:ac v1.0.17
# 
DISCID=3a059b05
DTITLE=Lemya - Far Away
DYEAR=2010
DGENRE=Pop
TTITLE0=Far Away
TTITLE1=Return To Me
TTITLE2=When He's Around
TTITLE3=The Reason Why
TTITLE4=Brocken Wing
EXTD=
EXTT0=
EXTT1=
EXTT2=
EXTT3=
EXTT4=
PLAYORDER=
